#tb 0: 1001/30000
0,          0,          0,        1,    59400, fb0e8171b0f91d9b2ceb5430db27a67b
0,          1,          1,        1,    59400, 73f121e6aa0e6290cfd06ac9b033c772
0,          2,          2,        1,    59400, 4113897efc44f49f5169a579bee03596
0,          3,          3,        1,    59400, aec1d4cf1a15e12b689980cfe136d5d6
0,          4,          4,        1,    59400, 1322af65f647254330120e67ddae38bd
0,          5,          5,        1,    59400, 5d28c1684451812c9db41433e6286d85
0,          6,          6,        1,    59400, 33843fc49d1d8655520c2f42332222ca
0,          7,          7,        1,    59400, 92a8125d8c75eaf6159d5f431c5c71bf
0,          8,          8,        1,    59400, 5bc96553842f65a3e37f012b72b580f5
0,          9,          9,        1,    59400, de5eb6299ee5034dc3b01cdc94bf810a
